<?xml version="1.0" standalone="no"?>
<svg t="1606358041043"
  class="icon" viewBox="0 0 1024 1024" version="1.1" xmlns="http://www.w3.org/2000/svg" p-id="2753" width="64"
  height="64" xmlns:xlink="http://www.w3.org/1999/xlink">
  <defs>
    <style type="text/css"></style>
  </defs>
  <path
    d="M374.5 65.1H168.2c-57.2 0-103.4 46.8-103.4 103.4v206.3c0 57.2 46.8 103.4 103.4 103.4h206.3c56.6 0 103.4-46.8 103.4-103.4V168.5c0-57.2-46.8-103.4-103.4-103.4z m34.1 309.7c0 18.7-15.4 34.1-34.1 34.1H168.2c-18.7 0-34.1-15.4-34.1-34.1V168c0-18.7 15.4-34.1 34.1-34.1l206.3 0.6c18.7 0 34.1 15.4 34.1 34.1v206.2zM855.8 65.1H649.5c-57.2 0-103.4 46.8-103.4 103.4v206.3c0 57.2 46.8 103.4 103.4 103.4h206.3c56.7 0 102.9-46.8 103.4-103.4V168.5c0-57.2-46.8-103.4-103.4-103.4z m34.1 309.7c0 18.7-15.4 34.1-34.1 34.1H649.5c-18.7 0-34.1-15.4-34.1-34.1V168c0-18.7 15.4-34.1 34.1-34.1l206.3 0.6c18.7 0 34.1 15.4 34.1 34.1v206.2zM374.5 546.4H168.2c-57.2 0-103.4 46.8-103.4 103.4v205.7c0 57.2 46.8 103.4 103.4 103.4h206.3c56.6 0 103.4-46.2 103.4-102.9V649.8c0-57.2-46.8-103.4-103.4-103.4zM408.6 856c0 18.7-15.4 34.1-34.1 34.1H168.2c-18.7 0-34.1-15.4-34.1-34.1V649.8c0-18.7 15.4-34.1 34.1-34.1h206.3c18.7 0 34.1 15.4 34.1 34.1V856zM855.8 546.4H649.5c-57.2 0-103.4 46.8-103.4 103.4v205.7c0 57.2 46.8 103.4 103.4 103.4h206.3c56.7 0 102.9-46.2 103.4-102.9V649.8c0-57.2-46.8-103.4-103.4-103.4zM889.9 856c0 18.7-15.4 34.1-34.1 34.1H649.5c-18.7 0-34.1-15.4-34.1-34.1V649.8c0-18.7 15.4-34.1 34.1-34.1h206.3c18.7 0 34.1 15.4 34.1 34.1V856z"
    p-id="2754" fill="#ffffff"></path>
</svg>